<svg width="3256" height="500" viewBox="0 0 3256 500" fill="none" xmlns="http://www.w3.org/2000/svg">
<path d="M396.251 192.628C451.92 224.204 487.56 272.692 487.56 327.065C487.56 422.219 378.415 499.355 243.779 499.355C109.144 499.355 5.52395e-05 422.219 0 327.065C3.2541e-06 274.452 33.3704 227.348 85.9678 195.745C61.4238 218.992 46.8828 247.874 46.8828 279.168C46.8828 356.031 134.601 418.342 242.807 418.342C351.012 418.342 438.73 356.031 438.73 279.168C438.73 246.458 422.842 216.386 396.251 192.628Z" fill="white"/>
<path d="M241.394 76.248C345.221 76.2481 429.391 136.037 429.391 209.79C429.391 283.543 345.221 343.332 241.394 343.332C137.567 343.332 53.3977 283.543 53.3977 209.79C53.3977 136.037 137.567 76.2482 241.394 76.248ZM240.183 76.3125C159.258 76.3127 93.6546 122.808 93.6546 180.163C93.6549 237.518 159.258 284.013 240.183 284.013C321.108 284.013 386.712 237.518 386.712 180.163C386.712 122.808 321.108 76.3125 240.183 76.3125Z" fill="white"/>
<ellipse cx="242.566" cy="112.27" rx="141.357" ry="100.185" fill="white"/>
<path fill-rule="evenodd" clip-rule="evenodd" d="M1669.41 241.053C1669.46 242.927 1669.48 244.804 1669.48 246.682L1669.48 241.17L1669.41 241.053Z" fill="white"/>
<path d="M1502.09 480.273C1558.76 461.035 1606.51 421.852 1636.43 370.023L1559.02 325.33C1539.94 358.378 1509.49 383.363 1473.36 395.63C1437.22 407.896 1397.86 406.608 1362.6 392.004C1327.35 377.4 1298.6 350.478 1281.72 316.252C1276.88 306.43 1273.11 296.198 1270.42 285.729H1669.48L1669.48 246.682C1669.48 244.804 1669.46 242.927 1669.41 241.053C1668.09 183.219 1646.48 127.617 1608.26 84.0337C1568.8 39.0384 1514.33 9.92258 1454.99 2.11099C1395.66 -5.7006 1335.51 8.32477 1285.75 41.574C1235.99 74.8232 1200.01 125.029 1184.52 182.836C1169.03 240.644 1175.08 302.112 1201.55 355.787C1228.02 409.462 1273.1 451.684 1328.4 474.587C1383.69 497.489 1445.42 499.51 1502.09 480.273ZM1571.91 196.611H1273.68C1284.73 163.707 1306.4 135.282 1335.41 115.896C1367.14 94.6951 1405.49 85.7519 1443.33 90.7329C1481.16 95.7139 1515.9 114.279 1541.06 142.97C1554.9 158.759 1565.33 177.02 1571.91 196.611Z" fill="white"/>
<path fill-rule="evenodd" clip-rule="evenodd" d="M3255.16 241.059C3255.2 242.933 3255.23 244.809 3255.23 246.688L3255.23 241.176L3255.16 241.059Z" fill="white"/>
<path d="M3087.84 480.279C3144.51 461.041 3192.25 421.858 3222.18 370.029L3144.77 325.336C3125.68 358.384 3095.24 383.369 3059.1 395.636C3022.97 407.902 2983.61 406.614 2948.35 392.01C2913.09 377.406 2884.35 350.484 2867.47 316.258C2862.63 306.435 2858.85 296.204 2856.17 285.735H3255.23L3255.23 246.688C3255.23 244.809 3255.2 242.933 3255.16 241.059C3253.84 183.225 3232.23 127.622 3194.01 84.0396C3154.55 39.0442 3100.08 9.92844 3040.74 2.11685C2981.41 -5.69474 2921.26 8.33062 2871.49 41.5799C2821.73 74.8291 2785.76 125.035 2770.27 182.842C2754.78 240.65 2760.83 302.118 2787.3 355.793C2813.77 409.468 2858.85 451.69 2914.14 474.592C2969.43 497.495 3031.17 499.516 3087.84 480.279ZM3157.66 196.617H2859.43C2870.48 163.712 2892.14 135.288 2921.16 115.902C2952.89 94.7009 2991.24 85.7577 3029.07 90.7388C3066.91 95.7198 3101.64 114.285 3126.8 142.976C3140.65 158.764 3151.08 177.026 3157.66 196.617Z" fill="white"/>
<path d="M2108.64 108.413H2018.4V108.937C1997.74 108.937 1977.29 113.005 1958.2 120.91C1939.12 128.815 1921.78 140.401 1907.17 155.007C1892.57 169.614 1880.98 186.954 1873.08 206.038C1865.17 225.122 1861.1 245.576 1861.1 266.232H1860.58L1860.58 493.365H1771.46L1771.46 22.0511L1860.58 22.0511V76.6403C1879.64 60.7769 1901.01 47.8493 1924 38.3277C1953.71 26.0219 1985.53 19.6443 2017.68 19.5512V19.2949H2108.64V108.413Z" fill="white"/>
<path d="M827.724 247.138H824.953C832.962 244.74 840.859 241.933 848.611 238.721C878.54 226.324 905.734 208.154 928.641 185.247C951.547 162.341 969.718 135.147 982.114 105.218C994.511 75.2893 1000.89 43.2118 1000.89 10.8171L911.505 10.8171C911.505 31.4734 907.437 51.9274 899.532 71.0114C891.627 90.0953 880.041 107.435 865.435 122.042C850.829 136.648 833.488 148.234 814.405 156.139C797.65 163.079 779.84 167.062 761.764 167.931L761.764 10.1025L672.646 10.1025L672.646 493.36H761.764L761.764 336.255H838.034V336.199C855.163 337.324 872.016 341.247 887.918 347.834C907.002 355.739 924.342 367.325 938.948 381.931C953.555 396.538 965.141 413.878 973.046 432.962C980.95 452.046 985.019 472.5 985.019 493.156H1074.41C1074.41 460.761 1068.02 428.684 1055.63 398.755C1043.23 368.826 1025.06 341.632 1002.15 318.725C979.248 295.819 952.054 277.648 922.125 265.252C892.196 252.855 860.119 246.474 827.724 246.474V247.138Z" fill="white"/>
<path d="M2299.73 490.609L2299.73 108.414H2412.94V108.938C2433.6 108.938 2454.05 113.006 2473.14 120.911C2492.22 128.816 2509.56 140.402 2524.17 155.008C2538.77 169.615 2550.36 186.955 2558.26 206.039C2566.17 225.123 2570.24 245.577 2570.24 266.233L2570.25 495.202H2659.37V266.233H2659.62C2659.62 233.838 2653.24 201.761 2640.85 171.832C2628.45 141.903 2610.28 114.709 2587.37 91.8025C2564.47 68.896 2537.27 50.7256 2507.34 38.3287C2480.31 27.1311 2451.52 20.842 2422.33 19.73V19.2959L2299.73 19.2949L2210.61 19.2949L2210.61 490.609H2299.73Z" fill="white"/>
</svg>
