<svg width="1081" height="165" viewBox="0 0 1081 165" fill="none" xmlns="http://www.w3.org/2000/svg">
<path d="M130.687 62.9355C149.051 73.35 160.809 89.3439 160.809 107.279C160.808 138.663 124.81 164.104 80.4043 164.104C35.9986 164.104 0.000330068 138.663 0 107.279C1.0734e-06 89.9241 11.0091 74.3861 28.3604 63.9629C20.2614 71.6311 15.4629 81.1591 15.4629 91.4834C15.463 116.835 44.3944 137.386 80.083 137.386C115.772 137.386 144.703 116.835 144.703 91.4834C144.703 80.6925 139.46 70.7723 130.687 62.9355Z" fill="url(#paint0_linear_6034_174)"/>
<path d="M79.6172 24.5557C113.862 24.5557 141.623 44.2761 141.623 68.6016C141.623 92.9269 113.862 112.646 79.6172 112.646C45.3728 112.646 17.6125 92.9269 17.6123 68.6016C17.6123 44.2761 45.3727 24.5558 79.6172 24.5557ZM79.2178 24.5762C52.5269 24.5762 30.889 39.9113 30.8887 58.8281C30.8887 77.7451 52.5267 93.0811 79.2178 93.0811C105.909 93.081 127.546 77.745 127.546 58.8281C127.546 39.9114 105.909 24.5763 79.2178 24.5762Z" fill="url(#paint1_linear_6034_174)"/>
<ellipse cx="79.9841" cy="36.4329" rx="46.6227" ry="33.0433" fill="url(#paint2_linear_6034_174)"/>
<path fill-rule="evenodd" clip-rule="evenodd" d="M553.343 80.1925C553.358 80.816 553.365 81.4404 553.365 82.0653V80.2316L553.343 80.1925Z" fill="url(#paint3_linear_6034_174)"/>
<path d="M497.679 159.775C516.532 153.376 532.415 140.34 542.37 123.098L516.617 108.23C510.27 119.224 500.142 127.536 488.12 131.617C476.098 135.697 463.003 135.269 451.274 130.41C439.546 125.552 429.983 116.596 424.368 105.21C422.756 101.942 421.502 98.5379 420.609 95.0553H553.365V82.0653C553.365 81.4404 553.358 80.816 553.343 80.1925C552.905 60.9525 545.715 42.455 532.999 27.956C519.872 12.9871 501.751 3.30101 482.011 0.702276C462.272 -1.89645 442.261 2.76945 425.707 13.8307C409.152 24.8919 397.184 41.5941 392.031 60.8253C386.878 80.0566 388.892 100.505 397.698 118.362C406.503 136.218 421.501 150.265 439.895 157.884C458.289 165.503 478.826 166.175 497.679 159.775ZM520.906 65.4079H421.693C425.369 54.4613 432.576 45.005 442.228 38.5559C452.783 31.5028 465.543 28.5276 478.13 30.1847C490.717 31.8418 502.272 38.0181 510.642 47.5629C515.248 52.8152 518.717 58.8905 520.906 65.4079Z" fill="url(#paint4_linear_6034_174)"/>
<path fill-rule="evenodd" clip-rule="evenodd" d="M1080.88 80.1954C1080.9 80.819 1080.9 81.4433 1080.9 82.0683V80.2345L1080.88 80.1954Z" fill="url(#paint5_linear_6034_174)"/>
<path d="M1025.22 159.778C1044.07 153.379 1059.96 140.343 1069.91 123.101L1044.16 108.232C1037.81 119.227 1027.68 127.539 1015.66 131.62C1003.64 135.7 990.543 135.272 978.814 130.413C967.086 125.555 957.523 116.599 951.908 105.213C950.296 101.945 949.042 98.5409 948.149 95.0582H1080.9V82.0683C1080.9 81.4433 1080.9 80.819 1080.88 80.1954C1080.44 60.9554 1073.25 42.458 1060.54 27.959C1047.41 12.9901 1029.29 3.30394 1009.55 0.705206C989.812 -1.89353 969.801 2.77238 953.247 13.8336C936.692 24.8948 924.724 41.597 919.571 60.8283C914.418 80.0596 916.432 100.508 925.238 118.365C934.043 136.221 949.041 150.268 967.435 157.887C985.829 165.506 1006.37 166.178 1025.22 159.778ZM1048.45 65.4109H949.233C952.909 54.4642 960.116 45.0079 969.768 38.5589C980.323 31.5057 993.083 28.5306 1005.67 30.1876C1018.26 31.8447 1029.81 38.021 1038.18 47.5658C1042.79 52.8181 1046.26 58.8934 1048.45 65.4109Z" fill="url(#paint6_linear_6034_174)"/>
<path d="M699.462 36.0653H669.441V36.2397C662.569 36.2397 655.765 37.5932 649.416 40.223C643.067 42.8527 637.299 46.7072 632.439 51.5663C627.58 56.4255 623.726 62.1941 621.096 68.5429C618.466 74.8916 617.113 81.6962 617.113 88.5681H616.938L616.938 164.13H587.291L587.291 7.33488L616.938 7.33488V25.4954C623.278 20.218 630.389 15.9173 638.036 12.7497C647.92 8.65589 658.507 6.53421 669.203 6.50323V6.41797H699.462V36.0653Z" fill="url(#paint7_linear_6034_174)"/>
<path d="M273.33 82.2192H272.408C275.073 81.4216 277.7 80.4876 280.279 79.4193C290.235 75.2952 299.282 69.2503 306.902 61.6299C314.523 54.0094 320.568 44.9626 324.692 35.006C328.816 25.0494 330.939 14.378 330.939 3.601L301.202 3.60101C301.202 10.4729 299.848 17.2774 297.219 23.6262C294.589 29.975 290.734 35.7436 285.875 40.6028C281.016 45.4619 275.248 49.3164 268.899 51.9461C263.325 54.2548 257.4 55.5799 251.387 55.869L251.387 3.36328L221.739 3.36328L221.739 164.132H251.387L251.387 111.867H276.76V111.848C282.458 112.222 288.065 113.527 293.355 115.719C299.704 118.348 305.472 122.203 310.332 127.062C315.191 131.921 319.045 137.69 321.675 144.038C324.305 150.387 325.658 157.192 325.658 164.064H355.395C355.395 153.287 353.272 142.615 349.148 132.659C345.024 122.702 338.979 113.655 331.359 106.035C323.738 98.4144 314.691 92.3695 304.735 88.2453C294.778 84.1212 284.107 81.9985 273.33 81.9985V82.2192Z" fill="url(#paint8_linear_6034_174)"/>
<path d="M763.035 163.213L763.035 36.0657H800.697V36.24C807.569 36.24 814.374 37.5935 820.722 40.2233C827.071 42.853 832.84 46.7075 837.699 51.5666C842.558 56.4258 846.412 62.1944 849.042 68.5432C851.672 74.8919 853.025 81.6965 853.025 88.5684L853.03 164.741H882.677V88.5684H882.762C882.762 77.7914 880.64 67.12 876.515 57.1634C872.391 47.2068 866.346 38.16 858.726 30.5395C851.105 22.9191 842.059 16.8742 832.102 12.75C823.109 9.02487 813.532 6.93265 803.821 6.5627V6.41829L763.035 6.41797L733.388 6.41797L733.388 163.213H763.035Z" fill="url(#paint9_linear_6034_174)"/>
<defs>
<linearGradient id="paint0_linear_6034_174" x1="80.4738" y1="169.746" x2="80.4738" y2="62.9807" gradientUnits="userSpaceOnUse">
<stop stop-color="white"/>
<stop offset="0.903403" stop-color="white" stop-opacity="0"/>
</linearGradient>
<linearGradient id="paint1_linear_6034_174" x1="79.6034" y1="112.66" x2="79.6033" y2="29.7164" gradientUnits="userSpaceOnUse">
<stop stop-color="white"/>
<stop offset="0.903403" stop-color="white" stop-opacity="0"/>
</linearGradient>
<linearGradient id="paint2_linear_6034_174" x1="79.8723" y1="69.3696" x2="79.8707" y2="-1.51682" gradientUnits="userSpaceOnUse">
<stop stop-color="white"/>
<stop offset="0.903403" stop-color="white" stop-opacity="0"/>
</linearGradient>
<linearGradient id="paint3_linear_6034_174" x1="413.686" y1="80.2306" x2="553.365" y2="80.2306" gradientUnits="userSpaceOnUse">
<stop stop-color="white"/>
<stop offset="1" stop-color="#999999" stop-opacity="0.2"/>
</linearGradient>
<linearGradient id="paint4_linear_6034_174" x1="389.234" y1="82.0653" x2="553.365" y2="82.0653" gradientUnits="userSpaceOnUse">
<stop stop-color="white"/>
<stop offset="1" stop-color="#999999" stop-opacity="0.2"/>
</linearGradient>
<linearGradient id="paint5_linear_6034_174" x1="976.137" y1="-18.3086" x2="1080.9" y2="80.2336" gradientUnits="userSpaceOnUse">
<stop stop-color="white"/>
<stop offset="1" stop-color="#999999" stop-opacity="0.2"/>
</linearGradient>
<linearGradient id="paint6_linear_6034_174" x1="976.137" y1="-18.3086" x2="1080.9" y2="80.2336" gradientUnits="userSpaceOnUse">
<stop stop-color="white"/>
<stop offset="1" stop-color="#999999" stop-opacity="0.2"/>
</linearGradient>
<linearGradient id="paint7_linear_6034_174" x1="695.4" y1="-1.01871" x2="609.62" y2="162.744" gradientUnits="userSpaceOnUse">
<stop stop-color="white"/>
<stop offset="1" stop-color="#999999" stop-opacity="0.2"/>
</linearGradient>
<linearGradient id="paint8_linear_6034_174" x1="221.739" y1="37.2965" x2="317.352" y2="164.103" gradientUnits="userSpaceOnUse">
<stop stop-color="white"/>
<stop offset="1" stop-color="#999999" stop-opacity="0.2"/>
</linearGradient>
<linearGradient id="paint9_linear_6034_174" x1="873.403" y1="141.384" x2="770.67" y2="33.2257" gradientUnits="userSpaceOnUse">
<stop stop-color="white"/>
<stop offset="1" stop-color="#999999" stop-opacity="0.2"/>
</linearGradient>
</defs>
</svg>
