<svg width="3256" height="500" viewBox="0 0 3256 500" fill="none" xmlns="http://www.w3.org/2000/svg">
<path d="M396.256 192.634C451.922 224.21 487.56 272.698 487.56 327.069C487.559 422.222 378.415 499.359 243.779 499.359C109.144 499.359 0.000276997 422.222 0 327.069C3.25404e-06 274.457 33.369 227.353 85.9648 195.75C61.4225 218.996 46.8828 247.878 46.8828 279.171C46.8831 356.034 134.601 418.344 242.807 418.344C351.012 418.344 438.73 356.034 438.73 279.171C438.73 246.462 422.844 216.391 396.256 192.634Z" fill="#373737"/>
<path d="M241.394 76.251C345.221 76.251 429.391 136.041 429.391 209.794C429.391 283.547 345.221 343.336 241.394 343.336C137.567 343.336 53.398 283.547 53.3977 209.794C53.3977 136.041 137.567 76.2511 241.394 76.251ZM240.183 76.3154C159.258 76.3156 93.6547 122.811 93.6546 180.166C93.6546 237.521 159.258 284.016 240.183 284.017C321.108 284.017 386.712 237.521 386.712 180.166C386.712 122.811 321.108 76.3154 240.183 76.3154Z" fill="#373737"/>
<ellipse cx="242.566" cy="112.274" rx="141.357" ry="100.185" fill="#373737"/>
<path fill-rule="evenodd" clip-rule="evenodd" d="M1669.41 241.053C1669.46 242.927 1669.48 244.804 1669.48 246.682L1669.48 241.17L1669.41 241.053Z" fill="#373737"/>
<path d="M1502.09 480.273C1558.76 461.035 1606.51 421.852 1636.43 370.023L1559.02 325.33C1539.94 358.378 1509.49 383.363 1473.36 395.63C1437.22 407.896 1397.86 406.608 1362.6 392.004C1327.35 377.4 1298.6 350.478 1281.72 316.252C1276.88 306.43 1273.11 296.198 1270.42 285.729H1669.48L1669.48 246.682C1669.48 244.804 1669.46 242.927 1669.41 241.053C1668.09 183.219 1646.48 127.617 1608.26 84.0337C1568.8 39.0384 1514.33 9.92258 1454.99 2.11099C1395.66 -5.7006 1335.51 8.32477 1285.75 41.574C1235.99 74.8232 1200.01 125.029 1184.52 182.836C1169.03 240.644 1175.08 302.112 1201.55 355.787C1228.02 409.462 1273.1 451.684 1328.4 474.587C1383.69 497.489 1445.42 499.51 1502.09 480.273ZM1571.91 196.611H1273.68C1284.73 163.707 1306.4 135.282 1335.41 115.896C1367.14 94.6951 1405.49 85.7519 1443.33 90.7329C1481.16 95.7139 1515.9 114.279 1541.06 142.97C1554.9 158.759 1565.33 177.02 1571.91 196.611Z" fill="#373737"/>
<path fill-rule="evenodd" clip-rule="evenodd" d="M3255.16 241.062C3255.2 242.937 3255.23 244.813 3255.23 246.692L3255.23 241.18L3255.16 241.062Z" fill="#373737"/>
<path d="M3087.84 480.282C3144.51 461.045 3192.25 421.862 3222.18 370.033L3144.77 325.34C3125.68 358.388 3095.24 383.373 3059.1 395.64C3022.97 407.906 2983.61 406.617 2948.35 392.014C2913.09 377.41 2884.35 350.488 2867.47 316.262C2862.63 306.439 2858.85 296.207 2856.17 285.739H3255.23L3255.23 246.692C3255.23 244.813 3255.2 242.937 3255.16 241.062C3253.84 183.228 3232.23 127.626 3194.01 84.0435C3154.55 39.0481 3100.08 9.93234 3040.74 2.12075C2981.41 -5.69083 2921.26 8.33453 2871.49 41.5838C2821.73 74.833 2785.76 125.038 2770.27 182.846C2754.78 240.654 2760.83 302.121 2787.3 355.797C2813.77 409.472 2858.85 451.694 2914.14 474.596C2969.43 497.499 3031.17 499.52 3087.84 480.282ZM3157.66 196.621H2859.43C2870.48 163.716 2892.14 135.291 2921.16 115.906C2952.89 94.7048 2991.24 85.7617 3029.07 90.7427C3066.91 95.7237 3101.64 114.289 3126.8 142.98C3140.65 158.768 3151.08 177.03 3157.66 196.621Z" fill="#373737"/>
<path d="M2108.64 108.413H2018.4V108.937C1997.74 108.937 1977.29 113.005 1958.2 120.91C1939.12 128.815 1921.78 140.401 1907.17 155.007C1892.57 169.614 1880.98 186.954 1873.08 206.038C1865.17 225.122 1861.1 245.576 1861.1 266.232H1860.58L1860.58 493.365H1771.46L1771.46 22.0511L1860.58 22.0511V76.6403C1879.64 60.7769 1901.01 47.8493 1924 38.3277C1953.71 26.0219 1985.53 19.6443 2017.68 19.5512V19.2949H2108.64V108.413Z" fill="#373737"/>
<path d="M827.724 247.139H824.953C832.962 244.742 840.859 241.934 848.611 238.723C878.54 226.326 905.734 208.156 928.641 185.249C951.547 162.343 969.718 135.149 982.114 105.22C994.511 75.2913 1000.89 43.2138 1000.89 10.8191L911.505 10.8191C911.505 31.4754 907.437 51.9294 899.532 71.0133C891.627 90.0973 880.041 107.437 865.435 122.044C850.829 136.65 833.488 148.236 814.405 156.141C797.65 163.081 779.84 167.064 761.764 167.933L761.764 10.1045L672.646 10.1045L672.646 493.362H761.764L761.764 336.257H838.034V336.201C855.163 337.326 872.016 341.249 887.918 347.836C907.002 355.741 924.342 367.327 938.948 381.933C953.555 396.539 965.141 413.88 973.046 432.964C980.95 452.047 985.019 472.501 985.019 493.158H1074.41C1074.41 460.763 1068.02 428.686 1055.63 398.757C1043.23 368.828 1025.06 341.634 1002.15 318.727C979.248 295.821 952.054 277.65 922.125 265.254C892.196 252.857 860.119 246.476 827.724 246.476V247.139Z" fill="#373737"/>
<path d="M2299.73 490.609L2299.73 108.414H2412.94V108.938C2433.6 108.938 2454.05 113.006 2473.14 120.911C2492.22 128.816 2509.56 140.402 2524.17 155.008C2538.77 169.615 2550.36 186.955 2558.26 206.039C2566.17 225.123 2570.24 245.577 2570.24 266.233L2570.25 495.202H2659.37V266.233H2659.62C2659.62 233.838 2653.24 201.761 2640.85 171.832C2628.45 141.903 2610.28 114.709 2587.37 91.8025C2564.47 68.896 2537.27 50.7256 2507.34 38.3287C2480.31 27.1311 2451.52 20.842 2422.33 19.73V19.2959L2299.73 19.2949L2210.61 19.2949L2210.61 490.609H2299.73Z" fill="#373737"/>
</svg>
