<svg width="1075" height="163" viewBox="0 0 1075 163" fill="none" xmlns="http://www.w3.org/2000/svg">
<path d="M130.797 61.0283C149.172 71.4512 160.937 87.4566 160.937 105.404C160.936 136.813 124.91 162.274 80.4688 162.274C36.0276 162.274 0.000309648 136.813 0 105.404C1.0745e-06 88.0313 11.0226 72.4775 28.3945 62.0459C20.2842 69.7216 15.4795 79.2607 15.4795 89.5967C15.4795 114.968 44.4334 135.536 80.1504 135.536C115.868 135.536 144.822 114.968 144.822 89.5967C144.822 78.7981 139.576 68.871 130.797 61.0283Z" fill="url(#paint0_linear_6034_116)"/>
<path d="M79.6846 22.6152C113.957 22.6152 141.739 42.3514 141.739 66.6963C141.739 91.041 113.956 110.776 79.6846 110.776C45.4128 110.776 17.6302 91.041 17.6299 66.6963C17.6299 42.3514 45.4127 22.6153 79.6846 22.6152ZM79.2861 22.6357C52.5739 22.6357 30.9191 37.9831 30.9189 56.915C30.9189 75.8471 52.5738 91.1953 79.2861 91.1953C105.998 91.1953 127.653 75.8471 127.653 56.915C127.653 37.9831 105.998 22.6358 79.2861 22.6357Z" fill="url(#paint1_linear_6034_116)"/>
<ellipse cx="80.0516" cy="34.5042" rx="46.66" ry="33.0697" fill="url(#paint2_linear_6034_116)"/>
<path fill-rule="evenodd" clip-rule="evenodd" d="M546.492 79.3125C546.507 79.9292 546.514 80.5466 546.514 81.1647L546.514 79.3511L546.492 79.3125Z" fill="url(#paint3_linear_6034_116)"/>
<path d="M490.827 158.022C509.68 151.692 525.564 138.8 535.519 121.747L509.766 107.042C503.418 117.916 493.29 126.136 481.268 130.172C469.246 134.208 456.151 133.784 444.422 128.979C432.693 124.174 423.13 115.316 417.515 104.055C415.903 100.823 414.648 97.4566 413.756 94.0121H546.514L546.514 81.1647C546.514 80.5466 546.507 79.9292 546.492 79.3125C546.054 60.2836 538.864 41.9891 526.148 27.6492C513.021 12.8446 494.899 3.26478 475.159 0.694569C455.42 -1.87564 435.408 2.73906 418.854 13.6789C402.299 24.6187 390.33 41.1376 385.177 60.1578C380.024 79.1781 382.038 99.4024 390.844 117.063C399.65 134.723 414.647 148.616 433.042 156.151C451.436 163.687 471.973 164.351 490.827 158.022ZM514.054 64.6901H414.84C418.516 53.8636 425.723 44.5111 435.375 38.1328C445.931 31.1571 458.691 28.2146 471.278 29.8534C483.865 31.4923 495.42 37.6008 503.791 47.0409C508.397 52.2356 511.866 58.2442 514.054 64.6901Z" fill="url(#paint4_linear_6034_116)"/>
<path fill-rule="evenodd" clip-rule="evenodd" d="M1074.96 78.9678C1074.98 79.5818 1074.98 80.1966 1074.98 80.812L1074.98 79.0063L1074.96 78.9678Z" fill="url(#paint5_linear_6034_116)"/>
<path d="M1019.25 157.335C1038.12 151.033 1054.02 138.197 1063.98 121.218L1038.21 106.577C1031.85 117.403 1021.72 125.588 1009.69 129.607C997.655 133.625 984.55 133.203 972.811 128.419C961.073 123.635 951.503 114.815 945.883 103.603C944.27 100.385 943.015 97.033 942.121 93.6036H1074.98L1074.98 80.812C1074.98 80.1966 1074.98 79.5818 1074.96 78.9678C1074.52 60.0216 1067.33 41.8066 1054.6 27.5291C1041.46 12.7888 1023.33 3.25059 1003.57 0.691551C983.818 -1.86749 963.791 2.72716 947.223 13.6195C930.656 24.5118 918.677 40.9588 913.52 59.8964C908.363 78.834 910.379 98.9705 919.192 116.554C928.005 134.138 943.014 147.97 961.422 155.472C979.831 162.975 1000.38 163.637 1019.25 157.335ZM1042.5 64.409H943.206C946.885 53.6295 954.098 44.3177 963.757 37.9671C974.321 31.0217 987.091 28.0919 999.688 29.7237C1012.28 31.3555 1023.85 37.4374 1032.23 46.8365C1036.84 52.0086 1040.31 57.9911 1042.5 64.409Z" fill="url(#paint6_linear_6034_116)"/>
<path d="M693.236 33.4542H663.191V33.6287C656.314 33.6287 649.504 34.9833 643.15 37.6152C636.796 40.247 631.023 44.1046 626.16 48.9676C621.297 53.8306 617.439 59.6038 614.808 65.9577C612.176 72.3115 610.821 79.1215 610.821 85.9989H610.647L610.647 161.621H580.976L580.976 4.70085L610.647 4.70084V22.8759C616.992 17.5943 624.108 13.2902 631.761 10.12C641.652 6.02291 652.249 3.89954 662.953 3.86853V3.7832H693.236V33.4542Z" fill="url(#paint7_linear_6034_116)"/>
<path d="M266.767 79.6454H265.844C268.511 78.8472 271.14 77.9125 273.721 76.8433C283.685 72.7159 292.739 66.6662 300.366 59.0396C307.992 51.4131 314.042 42.3591 318.17 32.3945C322.297 22.43 324.421 11.75 324.421 0.964475L294.661 0.964481C294.661 7.84182 293.306 14.6518 290.674 21.0057C288.043 27.3595 284.185 33.1327 279.322 37.9958C274.459 42.8588 268.686 46.7163 262.332 49.3482C256.754 51.6587 250.824 52.9848 244.806 53.2742V0.726562L215.135 0.726564L215.135 161.623H244.806L244.806 109.316H270.199V109.298C275.902 109.672 281.513 110.978 286.808 113.172C293.162 115.803 298.935 119.661 303.798 124.524C308.661 129.387 312.518 135.16 315.15 141.514C317.782 147.868 319.137 154.678 319.137 161.555H348.897C348.897 150.77 346.773 140.09 342.645 130.125C338.518 120.161 332.468 111.107 324.842 103.48C317.215 95.8535 308.161 89.8038 298.197 85.6764C288.232 81.5489 277.552 79.4245 266.767 79.4245V79.6454Z" fill="url(#paint8_linear_6034_116)"/>
<path d="M756.862 160.706L756.862 33.4575H794.555V33.632C801.432 33.632 808.242 34.9866 814.596 37.6184C820.95 40.2503 826.723 44.1078 831.586 48.9708C836.449 53.8339 840.306 59.6071 842.938 65.9609C845.57 72.3148 846.925 79.1248 846.925 86.0021L846.929 162.236H876.6V86.0021H876.685C876.685 75.2166 874.561 64.5366 870.433 54.5721C866.306 44.6075 860.256 35.5535 852.63 27.927C845.003 20.3004 835.949 14.2507 825.985 10.1233C816.984 6.39512 807.4 4.30123 797.681 3.93098V3.78645L756.862 3.78613L727.191 3.78613L727.191 160.706H756.862Z" fill="url(#paint9_linear_6034_116)"/>
<defs>
<linearGradient id="paint0_linear_6034_116" x1="80.7592" y1="162.274" x2="80.7592" y2="57.423" gradientUnits="userSpaceOnUse">
<stop stop-color="#373737"/>
<stop offset="0.903403" stop-color="#595959" stop-opacity="0"/>
</linearGradient>
<linearGradient id="paint1_linear_6034_116" x1="79.4066" y1="110.697" x2="79.4455" y2="26.544" gradientUnits="userSpaceOnUse">
<stop stop-color="#373737"/>
<stop offset="0.903403" stop-color="#595959" stop-opacity="0"/>
</linearGradient>
<linearGradient id="paint2_linear_6034_116" x1="80.0829" y1="59.4591" x2="80.0829" y2="-9.42382" gradientUnits="userSpaceOnUse">
<stop stop-color="#373737"/>
<stop offset="0.903403" stop-color="#595959" stop-opacity="0"/>
</linearGradient>
<linearGradient id="paint3_linear_6034_116" x1="406.833" y1="79.3502" x2="546.514" y2="79.3502" gradientUnits="userSpaceOnUse">
<stop stop-color="#373737"/>
<stop offset="1" stop-color="#595959" stop-opacity="0.2"/>
</linearGradient>
<linearGradient id="paint4_linear_6034_116" x1="382.381" y1="81.1647" x2="546.514" y2="81.1647" gradientUnits="userSpaceOnUse">
<stop stop-color="#373737"/>
<stop offset="1" stop-color="#595959" stop-opacity="0.2"/>
</linearGradient>
<linearGradient id="paint5_linear_6034_116" x1="970.132" y1="-18.0319" x2="1073.39" y2="80.6738" gradientUnits="userSpaceOnUse">
<stop stop-color="#373737"/>
<stop offset="1" stop-color="#595959" stop-opacity="0.2"/>
</linearGradient>
<linearGradient id="paint6_linear_6034_116" x1="970.132" y1="-18.0319" x2="1073.39" y2="80.6738" gradientUnits="userSpaceOnUse">
<stop stop-color="#373737"/>
<stop offset="1" stop-color="#595959" stop-opacity="0.2"/>
</linearGradient>
<linearGradient id="paint7_linear_6034_116" x1="689.171" y1="-3.65941" x2="603.322" y2="160.234" gradientUnits="userSpaceOnUse">
<stop stop-color="#373737"/>
<stop offset="1" stop-color="#595959" stop-opacity="0.2"/>
</linearGradient>
<linearGradient id="paint8_linear_6034_116" x1="215.135" y1="34.6869" x2="310.824" y2="161.594" gradientUnits="userSpaceOnUse">
<stop stop-color="#373737"/>
<stop offset="1" stop-color="#595959" stop-opacity="0.2"/>
</linearGradient>
<linearGradient id="paint9_linear_6034_116" x1="867.319" y1="138.86" x2="764.503" y2="30.6153" gradientUnits="userSpaceOnUse">
<stop stop-color="#373737"/>
<stop offset="1" stop-color="#595959" stop-opacity="0.2"/>
</linearGradient>
</defs>
</svg>
